<svg xmlns="http://www.w3.org/2000/svg" xmlns:xlink="http://www.w3.org/1999/xlink" width="81" viewBox="0 0 60.75 58.499998" height="78" preserveAspectRatio="xMidYMid meet"><defs><clipPath id="2ac1f26a58"><path d="M 1.65625 0.410156 L 58.917969 0.410156 L 58.917969 57.667969 L 1.65625 57.667969 Z M 1.65625 0.410156 " clip-rule="nonzero"></path></clipPath><clipPath id="2d2c928b92"><path d="M 11 19 L 51 19 L 51 41.96875 L 11 41.96875 Z M 11 19 " clip-rule="nonzero"></path></clipPath><clipPath id="dad2e6e481"><path d="M 2.75 18 L 14 18 L 14 29 L 2.75 29 Z M 2.75 18 " clip-rule="nonzero"></path></clipPath><clipPath id="2621a6367c"><path d="M 12 16.03125 L 56.292969 16.03125 L 56.292969 41 L 12 41 Z M 12 16.03125 " clip-rule="nonzero"></path></clipPath></defs><g clip-path="url(#2ac1f26a58)"><path fill="#000000" d="M 58.835938 29 C 58.835938 29.933594 58.792969 30.867188 58.699219 31.800781 C 58.609375 32.734375 58.46875 33.65625 58.289062 34.578125 C 58.105469 35.496094 57.878906 36.402344 57.605469 37.296875 C 57.335938 38.195312 57.019531 39.074219 56.660156 39.9375 C 56.300781 40.804688 55.902344 41.648438 55.460938 42.476562 C 55.019531 43.300781 54.539062 44.105469 54.019531 44.882812 C 53.5 45.660156 52.941406 46.410156 52.347656 47.136719 C 51.753906 47.859375 51.125 48.550781 50.464844 49.214844 C 49.800781 49.875 49.109375 50.503906 48.382812 51.097656 C 47.660156 51.691406 46.910156 52.25 46.132812 52.769531 C 45.351562 53.289062 44.550781 53.769531 43.726562 54.210938 C 42.898438 54.652344 42.054688 55.054688 41.1875 55.410156 C 40.324219 55.769531 39.441406 56.085938 38.546875 56.355469 C 37.652344 56.628906 36.742188 56.855469 35.824219 57.039062 C 34.90625 57.222656 33.980469 57.359375 33.050781 57.449219 C 32.117188 57.542969 31.183594 57.589844 30.246094 57.589844 C 29.3125 57.589844 28.378906 57.542969 27.445312 57.449219 C 26.511719 57.359375 25.589844 57.222656 24.671875 57.039062 C 23.75 56.855469 22.84375 56.628906 21.949219 56.355469 C 21.050781 56.085938 20.171875 55.769531 19.308594 55.410156 C 18.441406 55.054688 17.597656 54.652344 16.769531 54.210938 C 15.945312 53.769531 15.140625 53.289062 14.363281 52.769531 C 13.585938 52.25 12.835938 51.691406 12.109375 51.097656 C 11.386719 50.503906 10.695312 49.875 10.03125 49.214844 C 9.371094 48.550781 8.742188 47.859375 8.148438 47.136719 C 7.554688 46.410156 6.996094 45.660156 6.476562 44.882812 C 5.957031 44.105469 5.476562 43.300781 5.035156 42.476562 C 4.59375 41.648438 4.191406 40.804688 3.835938 39.9375 C 3.476562 39.074219 3.160156 38.195312 2.890625 37.296875 C 2.617188 36.402344 2.390625 35.496094 2.207031 34.578125 C 2.023438 33.65625 1.886719 32.734375 1.796875 31.800781 C 1.703125 30.867188 1.65625 29.933594 1.65625 29 C 1.65625 28.0625 1.703125 27.128906 1.796875 26.195312 C 1.886719 25.265625 2.023438 24.339844 2.207031 23.421875 C 2.390625 22.503906 2.617188 21.59375 2.890625 20.699219 C 3.160156 19.804688 3.476562 18.921875 3.835938 18.058594 C 4.191406 17.191406 4.59375 16.347656 5.035156 15.523438 C 5.476562 14.695312 5.957031 13.894531 6.476562 13.113281 C 6.996094 12.335938 7.554688 11.585938 8.148438 10.863281 C 8.742188 10.136719 9.371094 9.445312 10.03125 8.78125 C 10.695312 8.121094 11.386719 7.492188 12.109375 6.898438 C 12.835938 6.304688 13.585938 5.746094 14.363281 5.226562 C 15.140625 4.707031 15.945312 4.226562 16.769531 3.785156 C 17.597656 3.34375 18.441406 2.945312 19.308594 2.585938 C 20.171875 2.226562 21.050781 1.910156 21.949219 1.640625 C 22.84375 1.367188 23.75 1.140625 24.671875 0.957031 C 25.589844 0.777344 26.511719 0.636719 27.445312 0.546875 C 28.378906 0.453125 29.3125 0.410156 30.246094 0.410156 C 31.183594 0.410156 32.117188 0.453125 33.050781 0.546875 C 33.980469 0.636719 34.90625 0.777344 35.824219 0.957031 C 36.742188 1.140625 37.652344 1.367188 38.546875 1.640625 C 39.441406 1.910156 40.324219 2.226562 41.1875 2.585938 C 42.054688 2.945312 42.898438 3.34375 43.726562 3.785156 C 44.550781 4.226562 45.351562 4.707031 46.132812 5.226562 C 46.910156 5.746094 47.660156 6.304688 48.382812 6.898438 C 49.109375 7.492188 49.800781 8.121094 50.464844 8.78125 C 51.125 9.445312 51.753906 10.136719 52.347656 10.863281 C 52.941406 11.585938 53.5 12.335938 54.019531 13.113281 C 54.539062 13.894531 55.019531 14.695312 55.460938 15.523438 C 55.902344 16.347656 56.300781 17.191406 56.660156 18.058594 C 57.019531 18.921875 57.335938 19.804688 57.605469 20.699219 C 57.878906 21.59375 58.105469 22.503906 58.289062 23.421875 C 58.46875 24.339844 58.609375 25.265625 58.699219 26.195312 C 58.792969 27.128906 58.835938 28.0625 58.835938 29 Z M 58.835938 29 " fill-opacity="1" fill-rule="nonzero"></path></g><g clip-path="url(#2d2c928b92)"><path fill="#ffffff" d="M 11.660156 23.679688 C 16 21.75 20.773438 20.617188 24.976562 20.1875 C 30.871094 19.585938 37.171875 20.101562 42.355469 22.273438 C 46.140625 23.863281 49.84375 26.621094 50.699219 30.691406 C 50.820312 31.253906 50.878906 31.832031 50.878906 32.417969 C 50.878906 36.164062 48.570312 39.429688 45.484375 42.027344 C 47.277344 39.800781 48.453125 37.242188 48.453125 34.453125 C 48.453125 33.796875 48.382812 33.152344 48.253906 32.523438 C 47.339844 28.179688 43.515625 25.230469 39.457031 23.527344 C 34.21875 21.328125 27.882812 20.796875 21.921875 21.410156 C 18.59375 21.75 15.058594 22.492188 11.660156 23.679688 " fill-opacity="1" fill-rule="evenodd"></path></g><g clip-path="url(#dad2e6e481)"><path fill="#ffffff" d="M 5.320312 28.660156 L 5.363281 28.679688 L 5.40625 28.703125 C 8.082031 23.894531 9.085938 23.988281 13.628906 26.46875 L 13.671875 26.390625 C 9.132812 23.90625 8.515625 23.117188 11.195312 18.308594 L 11.113281 18.257812 C 8.433594 23.070312 7.425781 22.976562 2.886719 20.496094 L 2.84375 20.578125 C 7.382812 23.058594 8 23.847656 5.320312 28.660156 " fill-opacity="1" fill-rule="evenodd"></path></g><g clip-path="url(#2621a6367c)"><path fill="#ffffff" d="M 12.113281 21.21875 C 16.886719 18.925781 22.160156 17.511719 26.828125 16.894531 C 33.375 16.027344 40.410156 16.394531 46.257812 18.644531 C 50.53125 20.292969 54.75 23.246094 55.835938 27.75 C 55.988281 28.371094 56.074219 29.015625 56.09375 29.671875 C 56.214844 33.839844 53.753906 37.554688 50.40625 40.546875 C 52.328125 38.007812 53.550781 35.121094 53.457031 32.011719 C 53.433594 31.285156 53.339844 30.566406 53.171875 29.875 C 52.011719 25.066406 47.652344 21.902344 43.074219 20.136719 C 37.167969 17.863281 30.089844 17.476562 23.472656 18.355469 C 19.773438 18.84375 15.859375 19.785156 12.113281 21.21875 " fill-opacity="1" fill-rule="evenodd"></path></g></svg>