<svg xmlns="http://www.w3.org/2000/svg" xmlns:xlink="http://www.w3.org/1999/xlink" width="256" viewBox="0 0 192 191.999996" height="256" preserveAspectRatio="xMidYMid meet"><path fill="#ffffff" d="M 162.640625 33.824219 C 150.214844 28.007812 136.925781 23.78125 123.03125 21.375 C 121.324219 24.460938 119.332031 28.609375 117.957031 31.910156 C 103.1875 29.6875 88.554688 29.6875 74.058594 31.910156 C 72.683594 28.609375 70.644531 24.460938 68.921875 21.375 C 55.015625 23.78125 41.710938 28.023438 29.28125 33.851562 C 4.214844 71.734375 -2.582031 108.675781 0.816406 145.089844 C 17.441406 157.507812 33.554688 165.050781 49.398438 169.988281 C 53.308594 164.601562 56.796875 158.882812 59.800781 152.851562 C 54.078125 150.675781 48.597656 147.992188 43.417969 144.875 C 44.789062 143.859375 46.136719 142.792969 47.433594 141.699219 C 79.027344 156.476562 113.351562 156.476562 144.566406 141.699219 C 145.878906 142.792969 147.222656 143.859375 148.582031 144.875 C 143.386719 148.007812 137.890625 150.691406 132.167969 152.867188 C 135.171875 158.882812 138.644531 164.617188 142.574219 170 C 158.429688 165.066406 174.558594 157.523438 191.183594 145.089844 C 195.171875 102.875 184.375 66.273438 162.640625 33.824219 Z M 64.105469 122.695312 C 54.621094 122.695312 46.84375 113.84375 46.84375 103.0625 C 46.84375 92.28125 54.457031 83.410156 64.105469 83.410156 C 73.753906 83.410156 81.53125 92.265625 81.367188 103.0625 C 81.382812 113.84375 73.753906 122.695312 64.105469 122.695312 Z M 127.894531 122.695312 C 118.410156 122.695312 110.632812 113.84375 110.632812 103.0625 C 110.632812 92.28125 118.242188 83.410156 127.894531 83.410156 C 137.542969 83.410156 145.320312 92.265625 145.15625 103.0625 C 145.15625 113.84375 137.542969 122.695312 127.894531 122.695312 Z M 127.894531 122.695312 " fill-opacity="1" fill-rule="nonzero"></path></svg>