<svg xmlns="http://www.w3.org/2000/svg" xmlns:xlink="http://www.w3.org/1999/xlink" width="1000" viewBox="0 0 750 374.999991" height="500" preserveAspectRatio="xMidYMid meet"><defs><g></g></defs><path stroke-linecap="butt" transform="matrix(1.779149, 0, 0, 1.779149, 27.079094, 88.757229)" fill="none" stroke-linejoin="miter" d="M 18.301746 86.999882 L 37.603023 86.999882 C 47.03081 86.999882 53.887583 80.14311 53.887583 70.717518 L 53.887583 39.454763 C 53.887583 30.029171 47.03081 23.172399 37.603023 23.172399 L 18.301746 23.172399 C 8.893719 23.172399 2.017186 30.029171 2.017186 39.454763 L 2.017186 70.717518 C 2.017186 80.14311 8.893719 86.999882 18.301746 86.999882 Z M 27.962265 68.651484 C 26.831545 68.651484 25.955511 67.775451 25.955511 66.664491 L 25.955511 43.525354 C 25.955511 42.39683 26.831545 41.520797 27.962265 41.520797 C 29.073224 41.520797 29.949257 42.39683 29.949257 43.525354 L 29.949257 66.664491 C 29.949257 67.775451 29.073224 68.651484 27.962265 68.651484 Z M 59.93858 86.999882 L 79.804119 86.999882 C 80.915078 86.999882 81.791112 86.123849 81.791112 85.012889 L 81.791112 49.506093 C 81.791112 48.395134 82.667145 47.49934 83.797865 47.49934 C 84.908824 47.49934 85.784858 48.395134 85.784858 49.506093 L 85.784858 85.09193 C 85.784858 86.279734 86.660891 86.999882 87.848696 86.999882 L 131.654755 86.999882 C 132.783279 86.999882 133.661508 86.123849 133.661508 85.012889 L 133.661508 25.179152 C 133.661508 24.048432 132.783279 23.172399 131.654755 23.172399 L 111.710176 23.172399 C 110.599216 23.172399 109.723183 24.048432 109.723183 25.179152 L 109.723183 61.23045 C 109.723183 62.341409 108.844954 63.217442 107.71643 63.217442 C 106.60547 63.217442 105.729437 62.341409 105.729437 61.23045 L 105.729437 25.100111 C 105.729437 23.815701 104.853403 23.172399 103.645839 23.172399 L 59.859539 23.172399 C 58.731015 23.172399 57.852786 24.048432 57.852786 25.179152 L 57.852786 85.012889 C 57.852786 86.123849 58.82762 86.999882 59.93858 86.999882 Z M 139.703723 86.999882 L 159.571457 86.999882 C 160.680221 86.999882 161.556254 86.123849 161.556254 85.012889 L 161.556254 25.179152 C 161.556254 24.048432 160.603376 23.172399 159.492416 23.172399 L 139.624682 23.172399 C 138.496158 23.172399 137.620125 24.048432 137.620125 25.179152 L 137.620125 85.012889 C 137.620125 86.123849 138.592763 86.999882 139.703723 86.999882 Z M 139.703723 86.999882 " stroke="#373737" stroke-width="16.057234" stroke-opacity="1" stroke-miterlimit="4"></path><path stroke-linecap="butt" transform="matrix(1.779149, 0, 0, 1.779149, 27.079094, 88.757229)" fill="none" stroke-linejoin="miter" d="M 167.633599 86.999882 L 187.501333 86.999882 C 188.610097 86.999882 189.48613 86.123849 189.48613 85.012889 L 189.48613 73.833035 C 189.48613 72.722075 190.364359 71.846042 191.492883 71.846042 C 192.603843 71.846042 193.479876 72.801116 193.479876 73.912075 L 193.479876 85.012889 C 193.479876 86.123849 194.43495 86.999882 195.543714 86.999882 L 215.411448 86.999882 C 216.542168 86.999882 217.418201 86.123849 217.418201 85.012889 L 217.418201 39.454763 C 217.418201 30.029171 210.561429 23.172399 201.133641 23.172399 L 181.832365 23.172399 C 172.424338 23.172399 165.550001 30.029171 165.550001 39.454763 L 165.550001 85.012889 C 165.550001 86.123849 166.522639 86.999882 167.633599 86.999882 Z M 191.492883 52.700651 C 190.364359 52.700651 189.48613 51.824618 189.48613 50.693898 L 189.48613 44.324543 C 189.48613 43.196018 190.364359 42.317789 191.492883 42.317789 C 192.603843 42.317789 193.479876 43.196018 193.479876 44.324543 L 193.479876 50.693898 C 193.479876 51.824618 192.603843 52.700651 191.492883 52.700651 Z M 223.392354 86.999882 L 267.275258 86.999882 C 268.384022 86.999882 269.260055 86.123849 269.260055 85.012889 L 269.260055 67.443919 C 269.260055 66.335155 268.384022 65.456926 267.275258 65.456926 L 247.407524 65.456926 C 246.276804 65.456926 245.323926 64.580893 245.323926 63.472129 L 245.323926 25.255997 C 245.323926 24.127473 244.445697 23.172399 243.336933 23.172399 L 223.469199 23.172399 C 222.358239 23.172399 221.385601 24.048432 221.385601 25.179152 L 221.385601 85.012889 C 221.385601 86.123849 222.261634 86.999882 223.392354 86.999882 Z M 287.353767 86.999882 L 307.221501 86.999882 C 308.350025 86.999882 309.228254 86.044808 309.228254 84.936044 L 309.228254 46.719912 C 309.228254 45.591388 310.181133 44.715354 311.292092 44.715354 L 319.277389 44.715354 C 320.388348 44.715354 321.264382 43.837125 321.264382 42.728361 L 321.264382 25.179152 C 321.264382 24.127473 320.388348 23.172399 319.277389 23.172399 L 275.238599 23.093358 C 274.110075 23.093358 273.231846 23.971587 273.231846 25.100111 L 273.231846 42.728361 C 273.231846 43.837125 274.110075 44.715354 275.238599 44.715354 L 283.204135 44.715354 C 284.334855 44.715354 285.289929 45.591388 285.289929 46.719912 L 285.289929 85.012889 C 285.289929 86.123849 286.242807 86.999882 287.353767 86.999882 Z M 327.245121 86.999882 L 372.803247 86.999882 C 382.211274 86.999882 389.068047 80.14311 389.068047 70.717518 L 389.068047 61.796907 C 389.068047 52.36912 382.211274 45.512347 372.803247 45.512347 L 351.183446 45.512347 C 350.054922 45.512347 349.176693 44.636314 349.176693 43.525354 C 349.176693 42.39683 350.054922 41.520797 351.183446 41.520797 L 387.081054 41.520797 C 388.192013 41.520797 389.068047 40.642568 389.068047 39.533804 L 389.068047 25.179152 C 389.068047 24.048432 388.192013 23.172399 387.081054 23.172399 L 341.522928 23.172399 C 332.1149 23.172399 325.240563 30.029171 325.240563 39.454763 L 325.240563 48.395134 C 325.240563 57.803161 332.1149 64.659934 341.522928 64.659934 L 363.142729 64.659934 C 364.253688 64.659934 365.129722 65.535967 365.129722 66.664491 C 365.129722 67.775451 364.253688 68.651484 363.142729 68.651484 L 327.245121 68.651484 C 326.116597 68.651484 325.240563 69.529713 325.240563 70.638477 L 325.240563 85.012889 C 325.240563 86.123849 326.116597 86.999882 327.245121 86.999882 Z M 327.245121 86.999882 " stroke="#373737" stroke-width="16.057234" stroke-opacity="1" stroke-miterlimit="4"></path><g fill="#ffffff" fill-opacity="1"><g transform="translate(27.134693, 243.543179)"><g><path d="M 32.503906 0 L 66.855469 0 C 83.601562 0 95.808594 -12.207031 95.808594 -28.957031 L 95.808594 -84.597656 C 95.808594 -101.34375 83.601562 -113.550781 66.855469 -113.550781 L 32.503906 -113.550781 C 15.753906 -113.550781 3.546875 -101.34375 3.546875 -84.597656 L 3.546875 -28.957031 C 3.546875 -12.207031 15.753906 0 32.503906 0 Z M 49.679688 -32.644531 C 47.691406 -32.644531 46.128906 -34.207031 46.128906 -36.195312 L 46.128906 -77.359375 C 46.128906 -79.34375 47.691406 -80.90625 49.679688 -80.90625 C 51.667969 -80.90625 53.226562 -79.34375 53.226562 -77.359375 L 53.226562 -36.195312 C 53.226562 -34.207031 51.667969 -32.644531 49.679688 -32.644531 Z M 49.679688 -32.644531 "></path></g></g></g><g fill="#ffffff" fill-opacity="1"><g transform="translate(126.475056, 243.543179)"><g><path d="M 7.238281 0 L 42.582031 0 C 44.570312 0 46.128906 -1.5625 46.128906 -3.546875 L 46.128906 -66.710938 C 46.128906 -68.699219 47.691406 -70.261719 49.679688 -70.261719 C 51.667969 -70.261719 53.226562 -68.699219 53.226562 -66.710938 L 53.226562 -3.40625 C 53.226562 -1.277344 54.789062 0 56.917969 0 L 134.84375 0 C 136.832031 0 138.390625 -1.5625 138.390625 -3.546875 L 138.390625 -110.003906 C 138.390625 -111.992188 136.832031 -113.550781 134.84375 -113.550781 L 99.359375 -113.550781 C 97.371094 -113.550781 95.808594 -111.992188 95.808594 -110.003906 L 95.808594 -45.847656 C 95.808594 -43.859375 94.25 -42.296875 92.261719 -42.296875 C 90.273438 -42.296875 88.710938 -43.859375 88.710938 -45.847656 L 88.710938 -110.144531 C 88.710938 -112.417969 87.152344 -113.550781 85.023438 -113.550781 L 7.097656 -113.550781 C 5.109375 -113.550781 3.546875 -111.992188 3.546875 -110.003906 L 3.546875 -3.546875 C 3.546875 -1.5625 5.25 0 7.238281 0 Z M 7.238281 0 "></path></g></g></g><g fill="#ffffff" fill-opacity="1"><g transform="translate(268.389867, 243.543179)"><g><path d="M 7.238281 0 L 42.582031 0 C 44.570312 0 46.128906 -1.5625 46.128906 -3.546875 L 46.128906 -110.003906 C 46.128906 -111.992188 44.425781 -113.550781 42.441406 -113.550781 L 7.097656 -113.550781 C 5.109375 -113.550781 3.546875 -111.992188 3.546875 -110.003906 L 3.546875 -3.546875 C 3.546875 -1.5625 5.25 0 7.238281 0 Z M 7.238281 0 "></path></g></g></g><g fill="#00ffff" fill-opacity="1"><g transform="translate(318.081128, 243.543179)"><g><path d="M 7.238281 0 L 42.582031 0 C 44.570312 0 46.128906 -1.5625 46.128906 -3.546875 L 46.128906 -23.421875 C 46.128906 -25.40625 47.691406 -26.96875 49.679688 -26.96875 C 51.667969 -26.96875 53.226562 -25.265625 53.226562 -23.277344 L 53.226562 -3.546875 C 53.226562 -1.5625 54.929688 0 56.917969 0 L 92.261719 0 C 94.25 0 95.808594 -1.5625 95.808594 -3.546875 L 95.808594 -84.597656 C 95.808594 -101.34375 83.601562 -113.550781 66.855469 -113.550781 L 32.503906 -113.550781 C 15.753906 -113.550781 3.546875 -101.34375 3.546875 -84.597656 L 3.546875 -3.546875 C 3.546875 -1.5625 5.25 0 7.238281 0 Z M 49.679688 -61.035156 C 47.691406 -61.035156 46.128906 -62.597656 46.128906 -64.582031 L 46.128906 -75.9375 C 46.128906 -77.925781 47.691406 -79.488281 49.679688 -79.488281 C 51.667969 -79.488281 53.226562 -77.925781 53.226562 -75.9375 L 53.226562 -64.582031 C 53.226562 -62.597656 51.667969 -61.035156 49.679688 -61.035156 Z M 49.679688 -61.035156 "></path></g></g></g><g fill="#00ffff" fill-opacity="1"><g transform="translate(417.421491, 243.543179)"><g><path d="M 7.097656 0 L 85.164062 0 C 87.152344 0 88.710938 -1.5625 88.710938 -3.546875 L 88.710938 -34.777344 C 88.710938 -36.761719 87.152344 -38.324219 85.164062 -38.324219 L 49.820312 -38.324219 C 47.832031 -38.324219 46.128906 -39.886719 46.128906 -41.871094 L 46.128906 -109.863281 C 46.128906 -111.847656 44.570312 -113.550781 42.582031 -113.550781 L 7.238281 -113.550781 C 5.25 -113.550781 3.546875 -111.992188 3.546875 -110.003906 L 3.546875 -3.546875 C 3.546875 -1.5625 5.109375 0 7.097656 0 Z M 7.097656 0 "></path></g></g></g><g fill="#00ffff" fill-opacity="1"><g transform="translate(509.666107, 243.543179)"><g><path d="M 28.671875 0 L 64.015625 0 C 66.003906 0 67.5625 -1.703125 67.5625 -3.691406 L 67.5625 -71.679688 C 67.5625 -73.667969 69.265625 -75.226562 71.253906 -75.226562 L 85.449219 -75.226562 C 87.433594 -75.226562 88.996094 -76.789062 88.996094 -78.777344 L 88.996094 -110.003906 C 88.996094 -111.847656 87.433594 -113.550781 85.449219 -113.550781 L 7.097656 -113.695312 C 5.109375 -113.695312 3.546875 -112.132812 3.546875 -110.144531 L 3.546875 -78.777344 C 3.546875 -76.789062 5.109375 -75.226562 7.097656 -75.226562 L 21.292969 -75.226562 C 23.277344 -75.226562 24.980469 -73.667969 24.980469 -71.679688 L 24.980469 -3.546875 C 24.980469 -1.5625 26.683594 0 28.671875 0 Z M 28.671875 0 "></path></g></g></g><g fill="#00ffff" fill-opacity="1"><g transform="translate(602.194552, 243.543179)"><g><path d="M 7.097656 0 L 88.144531 0 C 104.894531 0 117.101562 -12.207031 117.101562 -28.957031 L 117.101562 -44.851562 C 117.101562 -61.601562 104.894531 -73.808594 88.144531 -73.808594 L 49.679688 -73.808594 C 47.691406 -73.808594 46.128906 -75.371094 46.128906 -77.359375 C 46.128906 -79.34375 47.691406 -80.90625 49.679688 -80.90625 L 113.550781 -80.90625 C 115.539062 -80.90625 117.101562 -82.46875 117.101562 -84.453125 L 117.101562 -110.003906 C 117.101562 -111.992188 115.539062 -113.550781 113.550781 -113.550781 L 32.503906 -113.550781 C 15.753906 -113.550781 3.546875 -101.34375 3.546875 -84.597656 L 3.546875 -68.699219 C 3.546875 -51.949219 15.753906 -39.742188 32.503906 -39.742188 L 70.96875 -39.742188 C 72.957031 -39.742188 74.519531 -38.183594 74.519531 -36.195312 C 74.519531 -34.207031 72.957031 -32.644531 70.96875 -32.644531 L 7.097656 -32.644531 C 5.109375 -32.644531 3.546875 -31.085938 3.546875 -29.097656 L 3.546875 -3.546875 C 3.546875 -1.5625 5.109375 0 7.097656 0 Z M 7.097656 0 "></path></g></g></g></svg>